<svg width="72" height="72" fill="none" xmlns="http://www.w3.org/2000/svg"><path fill-rule="evenodd" clip-rule="evenodd" d="M4.66 44.087a1.02 1.02 0 11-1.97.532 35.574 35.574 0 01-1.202-9.196C1.488 15.873 17.285 0 36.744 0a35.1 35.1 0 019.153 1.208c11.471 3.094 20.64 11.864 24.337 23.124A35.499 35.499 0 0172 35.422c0 19.55-15.798 35.423-35.256 35.423-3.855 0-7.566-.623-11.039-1.774a1.027 1.027 0 01-.65-1.294 1.02 1.02 0 011.29-.653 33.002 33.002 0 0010.399 1.671c18.332 0 33.216-14.954 33.216-33.372 0-3.65-.584-7.162-1.663-10.449-3.483-10.608-12.122-18.87-22.93-21.786a33.066 33.066 0 00-8.623-1.138c-18.332 0-33.216 14.954-33.216 33.373 0 2.996.394 5.9 1.132 8.664zm43.135-19.73a3.909 3.909 0 015.543.113 3.954 3.954 0 01-.113 5.57l-17.05 16.447a3.907 3.907 0 01-5.403.025l-10.484-9.93a3.953 3.953 0 01-.163-5.567 3.909 3.909 0 015.541-.164l7.77 7.36 14.36-13.854zm1.413 1.48L34.15 40.363a1.017 1.017 0 01-1.407.007l-8.475-8.029a1.874 1.874 0 00-2.657.079 1.896 1.896 0 00.078 2.67l10.483 9.93c.73.69 1.869.685 2.591-.012l17.05-16.449a1.896 1.896 0 00.054-2.67 1.874 1.874 0 00-2.657-.054zM24.284 48.853a1.017 1.017 0 01-1.442.01 1.029 1.029 0 01-.012-1.449l1.455-1.484a1.018 1.018 0 011.443-.011 1.03 1.03 0 01.011 1.45l-1.455 1.484zM18.16 46.61a1.02 1.02 0 11-1.975-.515l.52-2.015a1.02 1.02 0 111.976.515l-.52 2.015zm7.52 8.88a1.02 1.02 0 01-1.256-.716c-.15-.546.17-1.11.713-1.261l1.997-.553a1.02 1.02 0 011.255.715c.15.545-.17 1.11-.712 1.26l-1.998.554zM11.044 66.667L6.037 71.7c-.399.4-1.045.4-1.443 0L.3 67.384a1.029 1.029 0 010-1.45l5.008-5.031-3.669-2.034a1.026 1.026 0 01.14-1.86l18.716-6.916a1.017 1.017 0 011.074.237c.281.283.373.704.236 1.08L14.92 70.212a1.02 1.02 0 01-1.85.141l-2.025-3.686zm1.132-2.184l1.6 2.914 5.35-14.615L4.58 58.158l2.9 1.608a1.026 1.026 0 01.229 1.622L2.463 66.66l2.852 2.866 5.247-5.271a1.017 1.017 0 011.615.23z" fill="url(#paint0_linear_511_2576)"/><defs><linearGradient id="paint0_linear_511_2576" x1="72" y1="0" x2="-.338" y2="71.659" gradientUnits="userSpaceOnUse"><stop stop-color="#4E8528"/><stop offset="1" stop-color="#5ABC15"/></linearGradient></defs></svg>