<svg width="70" height="72" fill="none" xmlns="http://www.w3.org/2000/svg"><path fill-rule="evenodd" clip-rule="evenodd" d="M25.58 58.212L11.57 71.718c-.293.282-.724.36-1.095.2a1.02 1.02 0 01-.613-.938V58.212H6.37c-3.423 0-6.37-3.595-6.37-8.145V8.144C0 3.594 2.947 0 6.37 0h57.26C67.053 0 70 3.595 70 8.144v41.923c0 4.55-2.947 8.145-6.37 8.145H25.58zm-.404-2.04H63.63c.921 0 1.767-.417 2.46-1.092 1.159-1.131 1.89-2.964 1.89-5.013V8.144c0-2.049-.731-3.881-1.89-5.012-.693-.675-1.539-1.092-2.46-1.092H6.37c-.921 0-1.767.417-2.46 1.092-1.159 1.13-1.89 2.963-1.89 5.012v41.923c0 2.05.731 3.882 1.89 5.013.693.675 1.539 1.091 2.46 1.091h4.502c.558 0 1.01.457 1.01 1.02v11.405l12.596-12.143a1.01 1.01 0 01.698-.282zm-.246-8.427l.225.545v.001c.248.605.249 1.214.004 1.824l-.002.004a2.312 2.312 0 01-1.275 1.288l-.003.001-3.163 1.325a2.355 2.355 0 01-3.084-1.285l-5.355-12.99a2.31 2.31 0 01-.005-1.83 2.298 2.298 0 011.275-1.292l3.166-1.328a2.358 2.358 0 013.084 1.284l.168.408c1.46-.698 2.918-1.4 4.37-2.118 2.153-1.064 3.855-1.756 5.832-1.486 1.281.175 2.693.754 4.422 1.97l5.795 1.569a3.804 3.804 0 012.282 1.748l7.959-2.358c3.698-1.096 5.733-.237 6.632.99.618.843.786 1.934.555 3.013-.32 1.49-1.412 2.935-2.897 3.514L42.563 47.35c-2.128.827-4.974 1.96-7.256 1.29l-6.581-1.929h-.002a2.725 2.725 0 00-2.047.176l-1.747.858zm-1.641 1.327l-5.356-12.993a.34.34 0 00-.445-.186l-3.165 1.327a.333.333 0 00-.184.188.323.323 0 000 .257l.002.003c1.784 4.332 3.572 8.664 5.357 12.997.071.173.27.257.442.184l3.162-1.324.003-.002a.347.347 0 00.187-.19.348.348 0 00-.003-.261zm.864-3.215l1.64-.805c1.132-.557 2.29-.656 3.496-.3l6.58 1.928c.878.257 1.86.123 2.828-.127 1.11-.288 2.202-.743 3.14-1.108l12.35-4.807c.856-.334 1.466-1.182 1.65-2.041.104-.487.075-.988-.204-1.368-.24-.328-.654-.54-1.238-.631-.798-.124-1.85-.016-3.202.385l-7.984 2.366c.001.33-.04.666-.13 1-.541 2.045-2.644 3.271-4.666 2.72l-7.931-2.145a1.022 1.022 0 01-.715-1.25 1.01 1.01 0 011.237-.721l7.931 2.145h.002a1.791 1.791 0 002.191-1.277 1.817 1.817 0 00-1.267-2.215l-5.967-1.615a1.008 1.008 0 01-.324-.153c-1.452-1.041-2.61-1.574-3.673-1.72-1.594-.217-2.94.44-4.675 1.297a382.144 382.144 0 01-4.48 2.171l3.41 8.271zm19.915-35.344c1.879-2.841 3.993-4.249 7.675-4.249 4.825 0 8.686 3.592 8.686 7.94 0 2.89-1.219 5.794-3.233 8.684-2.86 4.104-7.336 8.215-11.886 12.317a1.844 1.844 0 01-2.486.001c-4.55-4.103-9.027-8.214-11.887-12.318-2.014-2.89-3.232-5.793-3.232-8.684 0-4.348 3.86-7.94 8.685-7.94 3.683 0 5.797 1.407 7.678 4.249zm-.001 23.079c4.392-3.961 8.717-7.916 11.477-11.878 1.747-2.508 2.865-5.002 2.865-7.51 0-3.29-3.015-5.9-6.666-5.9-2.956 0-4.61 1.184-6.11 3.518l-.001.002a1.82 1.82 0 01-1.564.856 1.81 1.81 0 01-1.565-.858C41 9.488 39.347 8.305 36.39 8.305c-3.65 0-6.665 2.61-6.665 5.9 0 2.507 1.117 5.001 2.864 7.509 2.76 3.962 7.086 7.917 11.478 11.878zm8.746-14.936c0 .563-.453 1.02-1.01 1.02-.557 0-1.01-.457-1.01-1.02 0-.633-.527-1.137-1.166-1.137-.638 0-1.165.504-1.165 1.137 0 .563-.453 1.02-1.01 1.02-.558 0-1.01-.457-1.01-1.02a3.18 3.18 0 013.185-3.177 3.181 3.181 0 013.186 3.177zm-11.121 0c0 .563-.453 1.02-1.01 1.02-.558 0-1.01-.457-1.01-1.02 0-.633-.527-1.137-1.166-1.137-.638 0-1.166.504-1.166 1.137 0 .563-.452 1.02-1.01 1.02-.557 0-1.01-.457-1.01-1.02a3.182 3.182 0 013.186-3.177 3.181 3.181 0 013.186 3.177zm-2.465 5.14a1.026 1.026 0 01.378-1.39 1.005 1.005 0 011.377.38 3.534 3.534 0 003.085 1.79c1.324 0 2.48-.72 3.085-1.79.276-.489.893-.66 1.377-.38.485.278.653.902.377 1.39a5.55 5.55 0 01-4.84 2.82 5.55 5.55 0 01-4.839-2.82z" fill="url(#paint0_linear_511_2577)"/><defs><linearGradient id="paint0_linear_511_2577" x1="70" y1="0" x2="-.716" y2="71.289" gradientUnits="userSpaceOnUse"><stop stop-color="#4E8528"/><stop offset="1" stop-color="#5ABC15"/></linearGradient></defs></svg>