<svg width="81" height="72" fill="none" xmlns="http://www.w3.org/2000/svg"><path fill-rule="evenodd" clip-rule="evenodd" d="M16.287 35.845c.075.338.114.686.114 1.037v15.82a4.844 4.844 0 01-1.461 3.458 5.038 5.038 0 01-3.527 1.432H8.025C3.593 57.592 0 54.07 0 49.722v-9.861c0-4.347 3.593-7.87 8.025-7.87h.556v-5.145c0-7.12 2.884-13.948 8.018-18.983S28.696 0 35.957 0h9.086c7.26 0 14.224 2.828 19.358 7.863s8.018 11.863 8.018 18.983v5.145h.556c4.432 0 8.025 3.523 8.025 7.87v9.861c0 4.347-3.593 7.87-8.025 7.87h-3.388c-.087 0-.174-.002-.26-.007a14.188 14.188 0 01-3.872 6.815 14.688 14.688 0 01-10.283 4.177h-7.938a4.068 4.068 0 01-1.166 2.224A4.218 4.218 0 0143.115 72h-5.23a4.218 4.218 0 01-2.953-1.2 4.055 4.055 0 01-1.223-2.895v-.907c0-1.086.44-2.127 1.223-2.895a4.218 4.218 0 012.953-1.2h5.23c1.108 0 2.17.432 2.953 1.2a4.068 4.068 0 011.166 2.223h7.938a12.37 12.37 0 008.66-3.517 11.947 11.947 0 003.288-5.857 4.976 4.976 0 01-1.06-.792 4.844 4.844 0 01-1.46-3.46V36.88c0-.35.038-.698.113-1.036v-9c0-5.115-2.073-10.021-5.761-13.638-3.689-3.618-8.692-5.65-13.909-5.65h-9.086c-5.217 0-10.22 2.032-13.909 5.65-3.688 3.617-5.76 8.523-5.76 13.639v8.999zm-5.41-3.854h.536c.916 0 1.807.247 2.579.704v-5.85c0-5.712 2.314-11.19 6.433-15.23 4.12-4.04 9.706-6.309 15.532-6.309h9.086c5.826 0 11.413 2.27 15.532 6.309 4.12 4.04 6.433 9.518 6.433 15.23v5.85a5.061 5.061 0 012.579-.704h.537v-5.145c0-6.523-2.643-12.779-7.346-17.391C58.074 4.842 51.695 2.25 45.043 2.25h-9.086c-6.652 0-13.031 2.591-17.735 7.204-4.703 4.612-7.346 10.868-7.346 17.39v5.146zm34.118 35.914v-.907c0-.49-.198-.958-.55-1.304a1.9 1.9 0 00-1.33-.54h-5.23a1.9 1.9 0 00-1.33.54c-.352.346-.55.815-.55 1.304v.907c0 .49.198.958.55 1.304a1.9 1.9 0 001.33.54h5.23a1.9 1.9 0 001.33-.54c.352-.346.55-.815.55-1.304zm27.98-33.663h-3.388a2.72 2.72 0 00-1.904.773 2.614 2.614 0 00-.788 1.867v15.82c0 .7.284 1.37.788 1.866a2.72 2.72 0 001.904.773h3.388c3.164 0 5.73-2.516 5.73-5.619v-9.861c0-3.103-2.566-5.619-5.73-5.619zm-64.95 0c-3.164 0-5.73 2.516-5.73 5.619v9.861c0 3.103 2.566 5.62 5.73 5.62h3.388a2.72 2.72 0 001.904-.774 2.614 2.614 0 00.788-1.867v-15.82c0-.7-.284-1.37-.788-1.866a2.719 2.719 0 00-1.904-.773H8.025zm49.158 6.943c-2.495 0-3.747 2.964-1.983 4.695a2.248 2.248 0 010 3.219l-2.524 2.475a2.356 2.356 0 01-3.283 0c-1.764-1.73-4.787-.502-4.787 1.945 0 1.26-1.04 2.275-2.32 2.275h-3.571c-1.281 0-2.32-1.015-2.32-2.275 0-2.45-3.022-3.676-4.788-1.945a2.353 2.353 0 01-3.28 0L25.8 49.1a2.248 2.248 0 010-3.22c1.764-1.73.513-4.694-1.983-4.694-1.281 0-2.32-1.019-2.32-2.276v-3.5c0-1.257 1.039-2.276 2.32-2.276 2.496 0 3.747-2.965 1.983-4.695a2.244 2.244 0 010-3.217l2.526-2.477a2.353 2.353 0 013.281 0c1.764 1.73 4.787.503 4.787-1.945 0-1.256 1.04-2.275 2.32-2.275h3.571c1.281 0 2.32 1.019 2.32 2.275 0 2.448 3.024 3.675 4.788 1.945a2.356 2.356 0 013.283 0L55.2 25.22c.906.888.906 2.33 0 3.217-1.764 1.73-.512 4.695 1.983 4.695 1.285 0 2.32 1.019 2.32 2.275v3.502c0 1.256-1.035 2.275-2.32 2.275zm0-2.251a.025.025 0 00.025-.024v-3.502a.024.024 0 00-.025-.024c-4.537 0-6.815-5.39-3.606-8.537a.024.024 0 000-.034l-2.524-2.478a.026.026 0 00-.037 0c-3.209 3.147-8.706.915-8.706-3.536a.025.025 0 00-.025-.024h-3.57a.025.025 0 00-.025.024c0 4.451-5.497 6.683-8.706 3.536a.025.025 0 00-.034 0l-2.527 2.478a.024.024 0 000 .034c3.209 3.146.934 8.537-3.606 8.537a.024.024 0 00-.025.024v3.502c0 .013.011.024.025.024 4.54 0 6.815 5.39 3.606 8.537a.025.025 0 000 .036l2.527 2.476c.01.009.025.009.034 0 3.211-3.15 8.706-.918 8.706 3.536 0 .013.011.024.025.024h3.57c.014 0 .025-.01.025-.024 0-4.449 5.497-6.683 8.706-3.536.01.01.026.01.037 0l2.524-2.476a.025.025 0 000-.036c-3.209-3.146-.93-8.537 3.606-8.537zM40.5 46.699c-5.358 0-9.727-4.287-9.727-9.539 0-5.255 4.368-9.539 9.727-9.539 5.356 0 9.727 4.284 9.727 9.539 0 5.252-4.37 9.539-9.727 9.539zm0-2.251c4.092 0 7.431-3.275 7.431-7.288 0-4.014-3.339-7.288-7.431-7.288-4.094 0-7.431 3.273-7.431 7.288 0 4.013 3.337 7.288 7.431 7.288z" fill="url(#paint0_linear_511_2575)"/><defs><linearGradient id="paint0_linear_511_2575" x1="81" y1="0" x2="1.431" y2="73.549" gradientUnits="userSpaceOnUse"><stop stop-color="#4E8528"/><stop offset="1" stop-color="#5ABC15"/></linearGradient></defs></svg>