<svg width="42" height="42" fill="none" xmlns="http://www.w3.org/2000/svg"><mask id="a" fill="#fff"><path d="M21 0C9.403 0 0 9.403 0 21s9.403 21 21 21 21-9.403 21-21S32.597 0 21 0zm.275 33.01h-.005a12.25 12.25 0 01-5.867-1.494l-6.508 1.708 1.743-6.361a12.255 12.255 0 01-1.64-6.138c.004-6.769 5.51-12.274 12.277-12.274a12.19 12.19 0 018.683 3.6 12.202 12.202 0 013.593 8.685c-.002 6.769-5.51 12.274-12.276 12.274zm.003-22.487a10.219 10.219 0 00-10.207 10.202c0 1.929.539 3.806 1.559 5.43l.243.387-1.03 3.764 3.86-1.013.373.22a10.201 10.201 0 005.194 1.423h.003a10.217 10.217 0 009.432-14.11 10.144 10.144 0 00-2.215-3.31 10.14 10.14 0 00-7.213-2.993h.001zm6.001 14.59c-.256.717-1.48 1.37-2.07 1.457a4.217 4.217 0 01-1.932-.12c-.594-.184-1.178-.4-1.748-.646-3.077-1.328-5.088-4.428-5.24-4.632-.154-.205-1.253-1.663-1.253-3.173s.793-2.252 1.074-2.559a1.13 1.13 0 01.818-.383c.203 0 .41.002.588.01.187.011.44-.071.69.527.255.615.869 2.125.946 2.279.077.154.128.332.026.537-.103.205-.154.332-.306.511-.154.178-.322.4-.46.537-.154.152-.313.319-.135.627s.794 1.31 1.706 2.124c1.173 1.045 2.16 1.369 2.468 1.523.306.154.485.128.665-.077.18-.205.766-.896.971-1.203.205-.308.41-.255.691-.154.28.104 1.789.844 2.097.998.306.154.51.23.588.357.077.128.077.742-.179 1.458l-.005.002z"/></mask><path d="M21 0C9.403 0 0 9.403 0 21s9.403 21 21 21 21-9.403 21-21S32.597 0 21 0zm.275 33.01h-.005a12.25 12.25 0 01-5.867-1.494l-6.508 1.708 1.743-6.361a12.255 12.255 0 01-1.64-6.138c.004-6.769 5.51-12.274 12.277-12.274a12.19 12.19 0 018.683 3.6 12.202 12.202 0 013.593 8.685c-.002 6.769-5.51 12.274-12.276 12.274zm.003-22.487a10.219 10.219 0 00-10.207 10.202c0 1.929.539 3.806 1.559 5.43l.243.387-1.03 3.764 3.86-1.013.373.22a10.201 10.201 0 005.194 1.423h.003a10.217 10.217 0 009.432-14.11 10.144 10.144 0 00-2.215-3.31 10.14 10.14 0 00-7.213-2.993h.001zm6.001 14.59c-.256.717-1.48 1.37-2.07 1.457a4.217 4.217 0 01-1.932-.12c-.594-.184-1.178-.4-1.748-.646-3.077-1.328-5.088-4.428-5.24-4.632-.154-.205-1.253-1.663-1.253-3.173s.793-2.252 1.074-2.559a1.13 1.13 0 01.818-.383c.203 0 .41.002.588.01.187.011.44-.071.69.527.255.615.869 2.125.946 2.279.077.154.128.332.026.537-.103.205-.154.332-.306.511-.154.178-.322.4-.46.537-.154.152-.313.319-.135.627s.794 1.31 1.706 2.124c1.173 1.045 2.16 1.369 2.468 1.523.306.154.485.128.665-.077.18-.205.766-.896.971-1.203.205-.308.41-.255.691-.154.28.104 1.789.844 2.097.998.306.154.51.23.588.357.077.128.077.742-.179 1.458l-.005.002z" fill="#4E8528"/><path d="M21.27 33.01V11.677h-.005l.005 21.333zm-5.867-1.494l10.212-18.73L18.18 8.73l-8.192 2.15 5.415 20.635zm-6.508 1.708l-20.575-5.638-9.77 35.657 35.76-9.385-5.415-20.634zm1.743-6.361L31.213 32.5l2.353-8.586-4.449-7.712-18.479 10.66zm-1.64-6.138l21.334.023v-.012l-21.334-.01zm20.96-8.675L14.862 27.124l.022.022.022.022 15.052-15.117zm3.593 8.686l-21.333-.067v.061l21.333.006zM21.278 10.523l.022 21.333-.022-42.667v21.334zM11.071 20.725l-21.334-.033v.033h21.334zm1.559 5.43l-18.065 11.35.006.008L12.63 26.157zm.243.387l20.576 5.634 2.478-9.05-4.996-7.942-18.058 11.358zm-1.03 3.764l-20.577-5.634-9.762 35.653 35.754-9.384-5.416-20.635zm3.86-1.013l10.861-18.361L18.9 6.398l-8.613 2.26 5.416 20.635zm.373.22l10.867-18.357-.006-.004-10.861 18.362zm5.194 1.423l-.005 21.334h.005V30.936zm.003 0V52.27h.029l-.029-21.334zm10.203-10.202l-21.334-.066v.037l21.334.029zm-2.986-7.219L13.357 28.552l.04.04.038.038L28.49 13.515zm-7.213-2.992l-.045-21.333.044 42.666V10.523zm6.002 14.59l-6.75-20.238-9.86 3.289-3.487 9.792 20.097 7.157zm-2.07 1.457L22.078 5.468l-.23.034-.23.04 3.59 21.028zm-1.932-.12l-6.311 20.378.064.02.065.02 6.182-20.419zm-1.748-.646L13.072 45.39l.005.002 8.452-19.588zm-5.24-4.632l17.12-12.73-.036-.047-.035-.047L16.29 21.172zm1.227-6.104l1.194-21.3-.075-.005-.075-.003-1.044 21.307zm.69.526l-19.703 8.18.005.013 19.697-8.193zm.972 2.816l19.049 9.606.033-.065.032-.066-19.114-9.475zm-.306.511l16.153 13.936.039-.046.04-.046-16.232-13.844zm-.46.537L3.423 4.278l-.01.01 14.999 15.17zm1.571 2.751L5.778 38.125l.006.006.007.006 14.192-15.928zm2.468 1.523l9.584-19.06-.022-.01-.022-.011-9.54 19.08zm1.636-1.28L41.822 34.31l.015-.023.016-.023-17.766-11.81zm.691-.154L32.16 2.284l-.075-.028-.075-.027-7.23 20.07zm2.097.998l9.584-19.06-.022-.01-.022-.011-9.54 19.081zm.41 1.815l6.75 20.237 9.85-3.286 3.49-9.78-20.09-7.171zM21 0v-21.333C-2.38-21.333-21.333-2.38-21.333 21h42.666c0-.005 0 .013-.006.045a.5.5 0 01-.029.092.305.305 0 01-.062.099.305.305 0 01-.099.062.5.5 0 01-.092.029c-.032.006-.05.006-.045.006V0zM0 21h-21.333c0 23.38 18.954 42.333 42.333 42.333V20.667c-.005 0 .013 0 .045.006a.5.5 0 01.092.029.305.305 0 01.099.062.305.305 0 01.062.099.5.5 0 01.029.092c.006.032.006.05.006.045H0zm21 21v21.333c23.38 0 42.333-18.954 42.333-42.333H20.667c0 .005 0-.013.006-.045a.5.5 0 01.029-.092.305.305 0 01.062-.099.305.305 0 01.099-.062.5.5 0 01.092-.029c.032-.006.05-.006.045-.006V42zm21-21h21.333C63.333-2.38 44.38-21.333 21-21.333v42.666c.005 0-.013 0-.045-.006a.5.5 0 01-.092-.029.305.305 0 01-.099-.062.305.305 0 01-.062-.099.5.5 0 01-.029-.092c-.006-.032-.006-.05-.006-.045H42zM21.275 33.01V11.677h-.005v42.667h.005V33.01zm-.005 0l-.005-21.333c1.52 0 3.016.38 4.35 1.108l-10.211 18.73L5.191 50.247a33.583 33.583 0 0016.082 4.098l-.005-21.334zm-5.867-1.494L9.988 10.88 3.48 12.59l5.415 20.635 5.415 20.634 6.509-1.708-5.415-20.634zm-6.508 1.708L29.47 38.86l1.743-6.36-20.575-5.638-20.575-5.638-1.743 6.361 20.575 5.638zm1.743-6.361l18.48-10.66a9.077 9.077 0 011.214 4.545l-21.334-.023-21.333-.023a33.589 33.589 0 004.494 16.82l18.48-10.66zm-1.64-6.138l21.334.011a9.041 9.041 0 01-9.057 9.048v-42.667c-18.554 0-33.6 15.059-33.61 33.597L9 20.725zM21.276 8.451v21.333a9.146 9.146 0 01-6.413-2.66l15.096-15.073L45.055-3.024a33.522 33.522 0 00-23.78-9.86V8.451zm8.683 3.6L14.906 27.168a9.131 9.131 0 01-1.995-2.98l19.713-8.155L52.338 7.88A33.537 33.537 0 0045.01-3.067L29.959 12.05zm2.666 3.982l-19.713 8.155a9.13 9.13 0 01-.693-3.519l21.333.067 21.333.066A33.536 33.536 0 0052.338 7.88l-19.714 8.154zm.927 4.703l-21.333-.006a9.041 9.041 0 019.057-9.053v42.667c18.544 0 33.605-15.053 33.61-33.603l-21.334-.005zM21.278 10.523l-.022-21.334A31.552 31.552 0 00-1.016-1.575l15.081 15.089 15.081 15.089a11.115 11.115 0 01-7.846 3.253l-.022-21.333zm-7.213 2.99L-1.015-1.574a31.552 31.552 0 00-9.248 22.267l21.334.033 21.333.033a11.115 11.115 0 01-3.258 7.845l-15.08-15.09zm-2.995 7.212h-21.333a31.526 31.526 0 004.828 16.78l18.065-11.35 18.064-11.348a11.141 11.141 0 011.71 5.918H11.07zm1.56 5.43L-5.43 37.514l.244.387 18.058-11.358L30.93 15.185l-.243-.386L12.63 26.154zm.243.387l-20.576-5.634-1.03 3.764 20.575 5.634 20.576 5.635 1.03-3.765-20.575-5.634zm-1.03 3.764l5.415 20.635 3.86-1.013-5.415-20.635L10.287 8.66l-3.86 1.013 5.415 20.635zm3.86-1.013L4.84 47.655l.373.22 10.861-18.361 10.862-18.362-.373-.22-10.861 18.361zm.373.22L5.208 47.873a31.534 31.534 0 0016.057 4.398l.005-21.334.004-21.333c1.995 0 3.953.537 5.669 1.553L16.076 29.514zm5.194 1.423V52.27h.003V9.603h-.003v21.334zm.003 0l.03 21.334a31.55 31.55 0 0022.265-9.24L28.483 27.943 13.398 12.86a11.117 11.117 0 017.846-3.256l.029 21.334zm7.21-2.992L43.568 43.03a31.55 31.55 0 009.24-22.266l-21.332-.029-21.334-.03a11.117 11.117 0 013.256-7.845l15.085 15.085zm2.992-7.21l21.334.065a31.47 31.47 0 00-2.39-12.126l-19.714 8.153-19.713 8.153a11.187 11.187 0 01-.85-4.31l21.334.065zm-.77-3.908L50.42 8.673A31.477 31.477 0 0043.545-1.6L28.49 13.515 13.435 28.63a11.186 11.186 0 01-2.443-3.651l19.713-8.153zm-2.215-3.31L43.623-1.523a31.472 31.472 0 00-10.265-6.886l-8.175 19.705-8.175 19.705a11.195 11.195 0 01-3.65-2.45L28.49 13.515zm-3.307-2.22l8.175-19.704a31.473 31.473 0 00-12.126-2.402l.044 21.333.045 21.333a11.195 11.195 0 01-4.313-.854l8.175-19.705zm-3.907-.773v21.333h.002V-10.81h-.002v21.334zm6.003 14.59L7.182 17.956a19.882 19.882 0 014.503-7.247 18.126 18.126 0 013.178-2.596c.834-.534 1.705-.99 2.624-1.377a19.05 19.05 0 014.59-1.268L25.21 26.57l3.13 21.103c4.298-.638 7.628-2.409 9.536-3.63 1.398-.896 6.906-4.486 9.501-11.774L27.28 25.113zm-2.07 1.457L21.618 5.541c2.616-.446 5.3-.279 7.84.49L23.277 26.45l-6.182 20.418a25.55 25.55 0 0011.705.731L25.209 26.57zm-1.932-.12l6.31-20.379c.134.041.265.09.393.145l-8.451 19.588-8.452 19.588a38.731 38.731 0 003.889 1.436l6.31-20.379zm-1.748-.646l8.456-19.586a11.517 11.517 0 012.471 1.433c.469.361.766.661.918.822a5.259 5.259 0 01.48.59l-.002-.003-.085-.121c-.014-.02-.166-.238-.359-.497L16.29 21.172-.83 33.902c-.58-.781 1.082 1.624 3.082 3.757 1.939 2.068 5.547 5.453 10.822 7.73l8.456-19.585zm-5.24-4.632l17.05-12.824.055.075a14.619 14.619 0 01.443.633c.214.325.494.78.788 1.358.285.56.68 1.429 1.023 2.571.336 1.126.721 2.85.721 5.014H-6.297c0 5.555 1.893 9.79 2.881 11.737 1.14 2.245 2.335 3.832 2.656 4.259l17.049-12.823zm-1.253-3.173h21.333c0 3.23-.91 6.257-2.334 8.774-1.239 2.19-2.946 3.895-2.225 3.111L16.11 15.44.41.996C.85.52-1.393 2.748-3.1 5.763A24.768 24.768 0 00-6.297 18h21.333zm1.074-2.559l15.7 14.444c-4.42 4.805-10.174 6.506-14.882 6.506V-6.276C11.813-6.276 5.395-4.421.41.996l15.7 14.444zm.818-.383V36.39h-.026c-.049-.001-.206-.004-.43-.015l1.044-21.307L18.56-6.24c-.736-.036-1.387-.036-1.632-.036v21.333zm.588.01l-1.195 21.3c.782.044 1.494.034 1.331.035h-.085a19.894 19.894 0 01-1.129-.034 20.891 20.891 0 01-7.695-1.96C1.998 31.23-.682 25.74-1.497 23.775l19.702-8.18 19.703-8.181C36.844 4.85 33.913-.897 26.932-4.188a21.779 21.779 0 00-9.008-2.075c-.212-.003-.387-.002-.398-.002-.214.001.45-.009 1.184.033l-1.194 21.3zm.69.527l-19.698 8.193.513 1.246a147.064 147.064 0 00.487 1.165c.033.076.084.195.147.335.028.064.192.433.416.88l19.081-9.54 19.081-9.54a21 21 0 01.458.98 112.233 112.233 0 01-.221-.534l-.29-.704-.277-.674-19.698 8.193zm.946 2.279L.071 27.413a20.608 20.608 0 01-2.05-7.009A20.824 20.824 0 01.065 8.934l19.113 9.476 19.114 9.475c4.4-8.877 1.355-16.724-.059-19.553l-19.081 9.54zm.026.537L.13 8.804c-.043.085-.233.467-.124.25A19.863 19.863 0 012.64 5.077L18.872 18.92l16.231 13.844a22.791 22.791 0 003.154-4.81l.015-.03-.045.09-19.049-9.605zm-.306.511L2.719 4.985c-.201.234-.365.432-.436.519l-.084.102c-.017.021-.013.015-.001.002a18.513 18.513 0 011.225-1.33l14.989 15.18L33.4 34.64a23.575 23.575 0 001.674-1.836l.117-.142.028-.034.007-.008-.051.06c-.03.038-.083.1-.15.178L18.872 18.92zm-.46.537L3.413 4.288A22.337 22.337 0 001.71 6.165a21.817 21.817 0 00-3.492 6.13c-2.679 7.22-1.004 13.99 1.601 18.486l18.458-10.697L36.735 9.388a20.787 20.787 0 012.63 7.808 20.991 20.991 0 01-1.143 9.935 20.849 20.849 0 01-4.406 7.083 19.48 19.48 0 01-.406.415L18.412 19.46zm-.135.627L-.181 30.782c.57.984 2.533 4.285 5.959 7.343L19.983 22.21 34.188 6.293a12.96 12.96 0 011.795 1.946c.311.42.552.804.752 1.149L18.277 20.085zm1.706 2.124L5.791 38.137a29.329 29.329 0 007.665 4.942c.145.065.41.18.318.14-.002-.002-.086-.038-.203-.09-.11-.05-.352-.162-.66-.316l9.54-19.081L31.99 4.65a23.279 23.279 0 00-1.24-.576l-.037-.016.03.013a13.346 13.346 0 013.43 2.21l-14.19 15.927zm2.468 1.523L12.867 42.79c1.577.793 6.268 2.982 12.555 2.212 7.125-.872 11.611-4.872 13.706-7.252L23.116 23.655 7.103 9.558c1.915-2.174 6.222-6.06 13.135-6.906 6.077-.743 10.526 1.381 11.797 2.02l-9.584 19.06zm.665-.077L39.128 37.75c.034-.038 1.574-1.767 2.694-3.441L24.087 22.451 6.352 10.596a18.006 18.006 0 01.696-.969l.068-.086a7.082 7.082 0 01-.066.078l.053-.06 16.013 14.097zm.971-1.203l17.766 11.81a20.726 20.726 0 01-5.348 5.479 20.991 20.991 0 01-9.7 3.679 20.811 20.811 0 01-8.631-.838 16.643 16.643 0 01-.626-.213l7.23-20.07 7.23-20.071c-.127-.046-1.218-.45-2.608-.773a21.847 21.847 0 00-7.398-.43c-8.223.93-13.28 6.005-15.68 9.617l17.765 11.81zm.691-.154l-7.38 20.016a21.92 21.92 0 01-.994-.397l-.112-.049-.066-.03-.035-.015-.007-.003a6.259 6.259 0 01.136.064 60.156 60.156 0 01.75.363l.195.096.059.029.01.005 9.54-19.081 9.541-19.081a119.663 119.663 0 00-2.238-1.082 36.466 36.466 0 00-.597-.272c-.1-.044-.693-.31-1.42-.578l-7.382 20.015zm2.097.998l-9.584 19.06c.264.132.543.266.503.246h-.003l-.008-.005-.03-.015a18.772 18.772 0 01-.71-.368 20.45 20.45 0 01-2.864-1.892 21.005 21.005 0 01-4.987-5.656l18.27-11.013L45.735 12.64a21.66 21.66 0 00-5.15-5.832 22.215 22.215 0 00-3.117-2.054c-.56-.305-1.048-.538-1.09-.559-.168-.08-.03-.014.082.042l-9.584 19.059zm.588.357L9.192 34.666a21.101 21.101 0 01-2.514-6.243c-.277-1.23-.39-2.25-.442-2.913a19.325 19.325 0 01.008-3.18c.132-1.535.452-3 .949-4.391l20.091 7.172 20.092 7.172a25.198 25.198 0 001.377-6.29c.086-1.005.137-2.321.018-3.835-.027-.334-.225-4.852-3.037-9.518L27.463 23.653zm-.179 1.458l-6.75-20.238-.005.002 6.75 20.238 6.75 20.237.005-.002-6.75-20.237z" fill="#4E8528" mask="url(#a)"/></svg>