<svg width="81" height="72" viewBox="0 0 81 72" fill="none" xmlns="http://www.w3.org/2000/svg">
<path fill-rule="evenodd" clip-rule="evenodd" d="M16.2872 35.845C16.362 36.1831 16.4005 36.5305 16.4005 36.8818V52.7014C16.4005 53.9985 15.875 55.2424 14.9397 56.1597C14.0045 57.0768 12.7359 57.5922 11.4131 57.5922H8.02523C3.59302 57.5922 0 54.0686 0 49.7222V39.861C0 35.5144 3.59302 31.991 8.02523 31.991H8.58075V26.8459C8.58075 19.7259 11.4649 12.8975 16.5989 7.86292C21.7331 2.82834 28.6961 0 35.9568 0H45.0432C52.3039 0 59.2669 2.82834 64.4011 7.86292C69.5351 12.8975 72.4192 19.7259 72.4192 26.8459V31.991H72.9748C77.407 31.991 81 35.5144 81 39.861V49.7222C81 54.0686 77.407 57.5922 72.9748 57.5922H69.5869C69.5 57.5922 69.4132 57.5899 69.3268 57.5854C68.7121 60.1452 67.3817 62.5108 65.4547 64.4005C62.7276 67.0748 59.029 68.577 55.1723 68.577H47.2343C47.0923 69.414 46.6875 70.193 46.0678 70.8007C45.2847 71.5686 44.2226 72 43.1151 72H37.8849C36.7774 72 35.7153 71.5686 34.9322 70.8007C34.149 70.0327 33.7091 68.9912 33.7091 67.9051V66.9981C33.7091 65.9119 34.149 64.8705 34.9322 64.1025C35.7153 63.3346 36.7774 62.9032 37.8849 62.9032H43.1151C44.2226 62.9032 45.2847 63.3346 46.0678 64.1025C46.6875 64.7101 47.0923 65.4892 47.2343 66.326H55.1723C58.4202 66.326 61.5349 65.0608 63.8314 62.8088C65.4837 61.1885 66.6151 59.1527 67.12 56.9519C66.7355 56.7374 66.3785 56.4718 66.0602 56.1597C65.125 55.2424 64.5995 53.9985 64.5995 52.7014V36.8818C64.5995 36.5305 64.638 36.1831 64.7128 35.845V26.8459C64.7128 21.7301 62.6404 16.824 58.9518 13.2067C55.263 9.58934 50.2598 7.55725 45.0432 7.55725H35.9568C30.7402 7.55725 25.737 9.58934 22.0482 13.2067C18.3596 16.824 16.2872 21.7301 16.2872 26.8459V35.845ZM10.8763 31.991H11.4131C12.3295 31.991 13.2201 32.2383 13.9917 32.6954V26.8459C13.9917 21.1331 16.3059 15.6544 20.4251 11.615C24.5443 7.57542 30.1313 5.30615 35.9568 5.30615H45.0432C50.8687 5.30615 56.4557 7.57542 60.5749 11.615C64.6941 15.6544 67.0083 21.1331 67.0083 26.8459V32.6954C67.7799 32.2383 68.6705 31.991 69.5869 31.991H70.1237V26.8459C70.1237 20.3229 67.4814 14.0671 62.7778 9.45476C58.0742 4.84227 51.6949 2.2511 45.0432 2.2511H35.9568C29.3051 2.2511 22.9258 4.84227 18.2222 9.45476C13.5186 14.0671 10.8763 20.3229 10.8763 26.8459V31.991ZM44.9953 67.9051V66.9981C44.9953 66.5089 44.7973 66.0401 44.4446 65.6942C44.092 65.3485 43.6137 65.1543 43.1151 65.1543H37.8849C37.3863 65.1543 36.908 65.3485 36.5554 65.6942C36.2027 66.0401 36.0047 66.5089 36.0047 66.9981V67.9051C36.0047 68.3942 36.2027 68.8631 36.5554 69.209C36.908 69.5547 37.3863 69.7489 37.8849 69.7489H43.1151C43.6137 69.7489 44.092 69.5547 44.4446 69.209C44.7973 68.8631 44.9953 68.3942 44.9953 67.9051ZM72.9748 34.2421H69.5869C68.873 34.2421 68.1882 34.5202 67.6834 35.0153C67.1787 35.5102 66.895 36.1817 66.895 36.8818V52.7014C66.895 53.4014 67.1787 54.0728 67.6834 54.5678C68.1882 55.0629 68.873 55.3411 69.5869 55.3411H72.9748C76.1392 55.3411 78.7045 52.8253 78.7045 49.7222V39.861C78.7045 36.7577 76.1392 34.2421 72.9748 34.2421ZM8.02523 34.2421C4.86082 34.2421 2.29555 36.7577 2.29555 39.861V49.7222C2.29555 52.8253 4.86082 55.3411 8.02523 55.3411H11.4131C12.127 55.3411 12.8118 55.0629 13.3166 54.5678C13.8213 54.0728 14.105 53.4014 14.105 52.7014V36.8818C14.105 36.1817 13.8213 35.5102 13.3166 35.0153C12.8118 34.5202 12.127 34.2421 11.4131 34.2421H8.02523ZM57.1829 41.1851C54.6883 41.1851 53.4359 44.1493 55.2002 45.8796C56.1053 46.7671 56.1053 48.2112 55.2002 49.099L52.6757 51.5744C51.7705 52.4621 50.298 52.4621 49.3928 51.5744C47.6285 49.8442 44.6056 51.0725 44.6056 53.5188C44.6056 54.7793 43.5664 55.7942 42.2853 55.7942H38.7147C37.4336 55.7942 36.3944 54.7793 36.3944 53.5188C36.3944 51.0696 33.373 49.8428 31.6072 51.5744C30.7015 52.4627 29.2321 52.4627 28.3267 51.5748L25.7998 49.099C24.8947 48.2112 24.8947 46.7671 25.7998 45.8796C27.5641 44.1493 26.3132 41.1851 23.8171 41.1851C22.5359 41.1851 21.4968 40.166 21.4968 38.9095V35.4083C21.4968 34.1519 22.5359 33.1329 23.8171 33.1329C26.3132 33.1329 27.5641 30.1685 25.7998 28.4384C24.8941 27.5502 24.8941 26.1093 25.7998 25.2211L28.3264 22.7435C29.2321 21.8552 30.7015 21.8552 31.6072 22.7435C33.3715 24.4736 36.3944 23.2469 36.3944 20.7992C36.3944 19.5427 37.4336 18.5236 38.7147 18.5236H42.2853C43.5664 18.5236 44.6056 19.5427 44.6056 20.7992C44.6056 23.2469 47.6285 24.4736 49.3928 22.7435C50.298 21.8557 51.7705 21.8557 52.6757 22.7435L55.2002 25.2211C56.1059 26.1093 56.1059 27.5502 55.2002 28.4384C53.4359 30.1685 54.6883 33.1329 57.1829 33.1329C58.4682 33.1329 59.5032 34.1519 59.5032 35.4083V38.9095C59.5032 40.166 58.4682 41.1851 57.1829 41.1851ZM57.1829 38.934C57.1967 38.934 57.2076 38.923 57.2076 38.9095V35.4083C57.2076 35.3949 57.1967 35.384 57.1829 35.384C52.6462 35.384 50.3684 29.9931 53.5769 26.8466C53.5864 26.8372 53.5864 26.8221 53.5769 26.8128L51.0525 24.3353C51.0425 24.3253 51.0261 24.3253 51.0159 24.3353C47.8074 27.4817 42.31 25.2505 42.31 20.7992C42.31 20.7857 42.2989 20.7747 42.2853 20.7747H38.7147C38.7011 20.7747 38.69 20.7857 38.69 20.7992C38.69 25.2505 33.1926 27.4817 29.9841 24.3353C29.9746 24.326 29.9592 24.326 29.9497 24.3353L27.4231 26.8128C27.4136 26.8221 27.4136 26.8372 27.4231 26.8466C30.6316 29.9931 28.3566 35.384 23.8171 35.384C23.8033 35.384 23.7924 35.3949 23.7924 35.4083V38.9095C23.7924 38.923 23.8033 38.934 23.8171 38.934C28.3566 38.934 30.6316 44.3249 27.4231 47.4713C27.4129 47.4812 27.4129 47.4973 27.4231 47.5071L29.9497 49.9827C29.9592 49.992 29.9746 49.992 29.9841 49.9827C33.1954 46.8336 38.69 49.0647 38.69 53.5188C38.69 53.5323 38.7011 53.5431 38.7147 53.5431H42.2853C42.2989 53.5431 42.31 53.5323 42.31 53.5188C42.31 49.07 47.8074 46.8361 51.0159 49.9827C51.0261 49.9925 51.0425 49.9925 51.0525 49.9827L53.5769 47.5071C53.5871 47.4973 53.5871 47.4812 53.5769 47.4713C50.3684 44.3249 52.6462 38.934 57.1829 38.934ZM40.501 46.6987C35.1425 46.6987 30.7741 42.4124 30.7741 37.16C30.7741 31.9053 35.1425 27.6213 40.501 27.6213C45.8571 27.6213 50.228 31.9053 50.228 37.16C50.228 42.4124 45.8571 46.6987 40.501 46.6987ZM40.501 44.4476C44.5931 44.4476 47.9325 41.1729 47.9325 37.16C47.9325 33.1455 44.5931 29.8724 40.501 29.8724C36.4072 29.8724 33.0696 33.1455 33.0696 37.16C33.0696 41.1729 36.4072 44.4476 40.501 44.4476Z" fill="url(#paint0_linear_511_2575)"/>
<defs>
<linearGradient id="paint0_linear_511_2575" x1="81" y1="-2.36724e-06" x2="1.43135" y2="73.5487" gradientUnits="userSpaceOnUse">
<stop stop-color="#4E8528"/>
<stop offset="1" stop-color="#5ABC15"/>
</linearGradient>
</defs>
</svg>
