<svg width="72" height="72" viewBox="0 0 72 72" fill="none" xmlns="http://www.w3.org/2000/svg">
<path fill-rule="evenodd" clip-rule="evenodd" d="M4.66029 44.0868C4.80633 44.6333 4.48335 45.1959 3.93956 45.3427C3.39563 45.4894 2.83566 45.1649 2.68962 44.6185C1.90578 41.6855 1.48762 38.6027 1.48762 35.4226C1.48762 15.8723 17.2854 0 36.7439 0C39.909 0 42.9773 0.420128 45.8965 1.20752C57.3684 4.30218 66.5379 13.072 70.2343 24.3319C71.3798 27.8212 72 31.5497 72 35.4226C72 54.9728 56.2023 70.8451 36.7439 70.8451C32.8891 70.8451 29.1782 70.222 25.7051 69.0712C25.1704 68.894 24.8795 68.3138 25.0558 67.7765C25.2322 67.2394 25.8095 66.947 26.3443 67.1242C29.6162 68.2085 33.1124 68.795 36.7439 68.795C55.0761 68.795 69.9595 53.8414 69.9595 35.4226C69.9595 31.7739 69.3756 28.2613 68.2965 24.974C64.814 14.3656 56.1754 6.10321 45.3674 3.18764C42.617 2.44565 39.7261 2.05012 36.7439 2.05012C18.4116 2.05012 3.52811 17.0038 3.52811 35.4226C3.52811 38.4188 3.92178 41.3234 4.66029 44.0868ZM47.7953 24.3572C49.3558 22.8517 51.8394 22.9023 53.3379 24.4704C54.8363 26.0383 54.7859 28.5336 53.2253 30.0391L36.1758 46.4874C34.6687 47.9412 32.2918 47.952 30.7717 46.5122L20.2884 36.5822C18.7141 35.0912 18.641 32.5965 20.125 31.0148C21.6092 29.4331 24.0921 29.3596 25.6664 30.8506L33.436 38.2101L47.7953 24.3572ZM49.2085 25.8361L34.149 40.3644C33.7568 40.7428 33.1382 40.7455 32.7425 40.3708L24.2667 32.3424C23.5119 31.6275 22.3214 31.6628 21.6097 32.421C20.8982 33.1794 20.9333 34.3755 21.688 35.0906L32.1714 45.0205C32.9002 45.7108 34.04 45.7057 34.7624 45.0086L51.812 28.5602C52.5603 27.8384 52.5845 26.642 51.8661 25.8902C51.1475 25.1384 49.9568 25.1141 49.2085 25.8361ZM24.2834 48.8536C23.8882 49.2568 23.2418 49.2617 22.8406 48.8648C22.4393 48.4678 22.4344 47.8182 22.8295 47.4152L24.2844 45.9307C24.6795 45.5278 25.3261 45.5228 25.7273 45.9198C26.1284 46.3168 26.1334 46.9662 25.7382 47.3693L24.2834 48.8536ZM18.1593 46.6111C18.0179 47.1586 17.4606 47.488 16.9156 47.3459C16.3705 47.2039 16.0427 46.644 16.1841 46.0964L16.7044 44.0811C16.8456 43.5336 17.403 43.2042 17.9481 43.3463C18.493 43.4883 18.8208 44.0481 18.6795 44.5958L18.1593 46.6111ZM25.6782 55.4903C25.1354 55.6407 24.5731 55.32 24.4234 54.7747C24.2737 54.2292 24.5929 53.6644 25.1357 53.514L27.1332 52.9605C27.6761 52.8101 28.2383 53.1308 28.3881 53.6761C28.5378 54.2214 28.2186 54.7864 27.6757 54.9368L25.6782 55.4903ZM11.0454 66.6676L6.03689 71.6997C5.63841 72.1001 4.99245 72.1001 4.59412 71.6997L0.298749 67.3842C-0.099583 66.9839 -0.099583 66.3349 0.298749 65.9345L5.30727 60.9025L1.63804 58.8693C1.28824 58.6756 1.08317 58.2944 1.11334 57.8942C1.14366 57.494 1.40353 57.1483 1.77854 57.0097L20.4942 50.0931C20.8674 49.9551 21.2865 50.0478 21.5678 50.3303C21.8491 50.6129 21.9412 51.0339 21.8039 51.4091L14.9197 70.2131C14.7818 70.5897 14.4377 70.851 14.0394 70.8813C13.6411 70.9116 13.2617 70.7057 13.0688 70.3541L11.0454 66.6676ZM12.1769 64.4837L13.7763 67.3977L19.1268 52.7828L4.58057 58.1585L7.48083 59.7655C7.76168 59.9212 7.95334 60.2005 7.99838 60.5194C8.04327 60.8385 7.93644 61.1602 7.70965 61.3881C7.70965 61.3881 2.46298 66.6594 2.46312 66.6594L5.31543 69.5253L10.5621 64.254C10.7887 64.0261 11.109 63.9186 11.4265 63.9637C11.7441 64.009 12.0219 64.2016 12.1769 64.4837Z" fill="url(#paint0_linear_511_2576)"/>
<defs>
<linearGradient id="paint0_linear_511_2576" x1="72" y1="2.1559e-06" x2="-0.337545" y2="71.6594" gradientUnits="userSpaceOnUse">
<stop stop-color="#4E8528"/>
<stop offset="1" stop-color="#5ABC15"/>
</linearGradient>
</defs>
</svg>
