<svg width="70" height="72" viewBox="0 0 70 72" fill="none" xmlns="http://www.w3.org/2000/svg">
<path fill-rule="evenodd" clip-rule="evenodd" d="M25.5802 58.2117L11.5693 71.7178C11.2769 71.9997 10.8462 72.0784 10.4747 71.9176C10.103 71.757 9.86202 71.388 9.86202 70.9797V58.2117H6.37017C2.947 58.2117 0 54.6171 0 50.0674V8.14416C0 3.59461 2.947 0 6.37017 0H63.6298C67.053 0 70 3.59461 70 8.14416V50.0674C70 54.6171 67.053 58.2117 63.6298 58.2117H25.5802ZM25.1756 56.1712H63.6298C64.551 56.1712 65.3974 55.7551 66.0899 55.0795C67.2489 53.9488 67.9799 52.1163 67.9799 50.0674V8.14416C67.9799 6.09522 67.2489 4.26287 66.0899 3.13214C65.3974 2.4566 64.551 2.04049 63.6298 2.04049H6.37017C5.44901 2.04049 4.6026 2.4566 3.91015 3.13214C2.75106 4.26287 2.02008 6.09522 2.02008 8.14416V50.0674C2.02008 52.1163 2.75106 53.9488 3.91015 55.0795C4.6026 55.7551 5.44901 56.1712 6.37017 56.1712H10.8721C11.4299 56.1712 11.8821 56.628 11.8821 57.1914V68.5959L24.4783 56.4534C24.6662 56.2722 24.9159 56.1712 25.1756 56.1712ZM24.9303 47.7446C25.0054 47.9265 25.0803 48.1084 25.1552 48.2901L25.1556 48.2913C25.4032 48.896 25.4038 49.5054 25.1589 50.1145L25.1572 50.1188C24.9096 50.7189 24.4832 51.1518 23.8821 51.4074L23.8795 51.4084L20.7163 52.733C19.5174 53.2383 18.1293 52.6582 17.6322 51.4484C15.8476 47.1171 14.0606 42.7858 12.2775 38.4579C12.0234 37.8523 12.0219 37.2377 12.2717 36.6276C12.5202 36.0205 12.9497 35.5871 13.5468 35.3358L16.7135 34.0082C17.9114 33.5059 19.2951 34.0806 19.7972 35.2918L19.7976 35.2928C19.8535 35.4285 19.9094 35.5641 19.9653 35.6997C21.4252 35.0019 22.8829 34.2991 24.3343 33.582C26.4881 32.5176 28.1899 31.826 30.1675 32.0961C31.448 32.2709 32.8597 32.8504 34.5893 34.0666L40.3839 35.6346C41.3768 35.9032 42.1749 36.5511 42.6663 37.3827L50.6247 35.0245C54.3226 33.9288 56.3584 34.7876 57.2574 36.015C57.8751 36.8582 58.0429 37.9488 57.8117 39.0282C57.4925 40.5186 56.4001 41.9632 54.9149 42.5419L42.5625 47.3499C40.4355 48.1767 37.5892 49.3091 35.3066 48.6396L28.7259 46.7114L28.7243 46.7109C28.0176 46.5025 27.3396 46.5605 26.6768 46.8866L24.9303 47.7446ZM23.2886 49.0715C23.0928 48.5965 18.1234 36.5409 17.9331 36.0788C17.8605 35.9044 17.6611 35.8207 17.4881 35.8932L14.3231 37.2201C14.2368 37.2565 14.1747 37.3195 14.1388 37.4075C14.1042 37.4922 14.1026 37.5774 14.1392 37.6647L14.1405 37.6679C15.9254 42 17.7128 46.3321 19.4978 50.6647L19.4979 50.6651C19.5691 50.8381 19.7673 50.9218 19.9405 50.8486L23.1019 49.5248L23.1052 49.5233C23.1909 49.4857 23.2537 49.424 23.2919 49.3338C23.3248 49.2465 23.3242 49.1586 23.2886 49.0715ZM24.1526 45.8573L25.7922 45.0516C26.9246 44.4945 28.0831 44.3957 29.289 44.7512L35.8696 46.6796C36.7471 46.9368 37.7288 46.803 38.6965 46.5525C39.8066 46.2651 40.8986 45.8099 41.8364 45.4454L54.1876 40.6379C55.0434 40.3044 55.653 39.4556 55.837 38.5967C55.9413 38.1096 55.9118 37.6095 55.6332 37.2289C55.3928 36.9009 54.979 36.6884 54.3955 36.5977C53.5974 36.4737 52.5457 36.5823 51.1935 36.9829L43.209 39.3489C43.21 39.6796 43.1683 40.0152 43.0799 40.349C42.5376 42.3938 40.4355 43.6203 38.4126 43.0695L30.4818 40.9244C29.9432 40.7787 29.623 40.2187 29.7673 39.6746C29.9114 39.1307 30.4658 38.8073 31.0044 38.9529L38.9353 41.098L38.937 41.0984C39.8871 41.3573 40.8735 40.7808 41.128 39.8209C41.3827 38.8605 40.812 37.8632 39.8612 37.606L33.8936 35.9912C33.7777 35.9599 33.6682 35.9079 33.5702 35.8378C32.1179 34.7965 30.9607 34.2638 29.897 34.1187C28.3033 33.9011 26.9578 34.5577 25.2221 35.4154C23.734 36.1505 22.2395 36.8707 20.7427 37.586C21.879 40.3429 23.016 43.1 24.1526 45.8573ZM44.0676 10.5127C45.9468 7.6715 48.0608 6.26414 51.7433 6.26414C56.5684 6.26414 60.4289 9.85583 60.4289 14.2041C60.4289 17.0947 59.2103 19.9978 57.1963 22.8883C54.3369 26.9921 49.8601 31.1033 45.3103 35.2055C44.5987 35.8486 43.535 35.8486 42.8239 35.2061C38.2734 31.1033 33.7966 26.9921 30.9372 22.8883C28.9232 19.9978 27.7046 17.0947 27.7046 14.2041C27.7046 9.85583 31.5651 6.26414 36.3902 6.26414C40.0727 6.26414 42.1866 7.67135 44.0676 10.5127ZM44.0668 33.5916C48.4591 29.6305 52.7838 25.676 55.5443 21.714C57.2914 19.2065 58.4088 16.7116 58.4088 14.2041C58.4088 10.9144 55.3937 8.30463 51.7433 8.30463C48.7866 8.30463 47.1334 9.48782 45.6328 11.8218L45.6318 11.8236C45.2764 12.3739 44.7153 12.6803 44.0677 12.6803C43.4145 12.6803 42.8531 12.371 42.5029 11.8223C41.0004 9.48796 39.3472 8.30463 36.3902 8.30463C32.74 8.30463 29.7247 10.9144 29.7247 14.2041C29.7247 16.7116 30.8421 19.2065 32.5892 21.714C35.3498 25.676 39.6745 29.6305 44.0668 33.5916ZM52.813 18.6559C52.813 19.219 52.3605 19.6761 51.803 19.6761C51.2456 19.6761 50.793 19.219 50.793 18.6559C50.793 18.0229 50.266 17.5193 49.6274 17.5193C48.9889 17.5193 48.4619 18.0229 48.4619 18.6559C48.4619 19.219 48.0093 19.6761 47.4519 19.6761C46.8944 19.6761 46.4419 19.219 46.4419 18.6559C46.4419 16.9066 47.8627 15.4788 49.6274 15.4788C51.3921 15.4788 52.813 16.9066 52.813 18.6559ZM41.6919 18.6559C41.6919 19.219 41.2393 19.6761 40.6819 19.6761C40.1244 19.6761 39.6719 19.219 39.6719 18.6559C39.6719 18.0229 39.1449 17.5193 38.5063 17.5193C37.8676 17.5193 37.3405 18.0227 37.3405 18.6559C37.3405 19.219 36.8879 19.6761 36.3305 19.6761C35.773 19.6761 35.3205 19.219 35.3205 18.6559C35.3205 16.9066 36.7416 15.4788 38.5063 15.4788C40.271 15.4788 41.6919 16.9066 41.6919 18.6559ZM39.2272 23.7967C38.9511 23.3076 39.1201 22.6839 39.6045 22.4051C40.0887 22.1263 40.7061 22.297 40.9822 22.7862C41.586 23.8563 42.7422 24.5762 44.0667 24.5762C45.3914 24.5762 46.5476 23.8563 47.1516 22.7862C47.4277 22.297 48.0449 22.1263 48.5292 22.4051C49.0136 22.6839 49.1825 23.3076 48.9065 23.7967C47.9581 25.4774 46.1472 26.6167 44.0667 26.6167C41.9864 26.6167 40.1756 25.4774 39.2272 23.7967Z" fill="url(#paint0_linear_511_2577)"/>
<defs>
<linearGradient id="paint0_linear_511_2577" x1="70" y1="-2.10724e-06" x2="-0.716492" y2="71.2892" gradientUnits="userSpaceOnUse">
<stop stop-color="#4E8528"/>
<stop offset="1" stop-color="#5ABC15"/>
</linearGradient>
</defs>
</svg>
