<svg width="42" height="42" viewBox="0 0 42 42" fill="none" xmlns="http://www.w3.org/2000/svg">
<mask id="path-1-inside-1_511_2613" fill="white">
<path d="M21 0C9.40275 0 0 9.40275 0 21C0 32.5972 9.40275 42 21 42C32.5972 42 42 32.5972 42 21C42 9.40275 32.5972 0 21 0ZM21.2747 33.0103H21.2695C19.2199 33.0107 17.203 32.4968 15.4035 31.5158L8.89525 33.2238L10.6383 26.8625C9.56174 24.9964 8.99616 22.8796 8.9985 20.7253C9.002 13.9563 14.5075 8.45075 21.2747 8.45075C24.5577 8.45075 27.6412 9.73 29.9582 12.0505C31.1015 13.1888 32.0077 14.5425 32.6244 16.0333C33.2411 17.5241 33.556 19.1224 33.551 20.7358C33.5493 27.5047 28.0402 33.0103 21.2747 33.0103ZM21.2783 10.5227C18.5727 10.5255 15.9788 11.6012 14.0652 13.5137C12.1516 15.4263 11.0747 18.0198 11.0705 20.7253C11.0705 22.6538 11.6095 24.5315 12.6298 26.1555L12.873 26.5422L11.8423 30.3065L15.7027 29.2933L16.0755 29.5138C17.6481 30.4447 19.442 30.9361 21.2695 30.9365H21.273C23.9777 30.9328 26.5706 29.8567 28.4832 27.9442C30.3957 26.0316 31.4718 23.4387 31.4755 20.734C31.4796 19.3932 31.2179 18.0648 30.7054 16.8257C30.193 15.5867 29.44 14.4615 28.49 13.5153C27.5451 12.5644 26.4211 11.8103 25.1829 11.2966C23.9447 10.783 22.617 10.52 21.2765 10.5227H21.2783ZM27.279 25.1125C27.0235 25.83 25.7985 26.4827 25.2087 26.5702C24.5641 26.6803 23.9027 26.639 23.2767 26.4495C22.6829 26.2656 22.0993 26.05 21.5285 25.8037C18.452 24.4755 16.4412 21.3762 16.289 21.1715C16.135 20.9667 15.036 19.509 15.036 17.9987C15.036 16.4885 15.8288 15.7465 16.1105 15.4403C16.3923 15.134 16.7248 15.057 16.9277 15.057C17.1308 15.057 17.3372 15.0587 17.5157 15.0675C17.703 15.078 17.9567 14.9958 18.2052 15.5943C18.4608 16.2085 19.075 17.7188 19.152 17.8728C19.229 18.0268 19.2797 18.2053 19.1782 18.41C19.075 18.6147 19.0243 18.7425 18.872 18.921C18.718 19.0995 18.55 19.3218 18.4118 19.4583C18.2577 19.6105 18.0985 19.7768 18.277 20.0848C18.4555 20.3927 19.0715 21.3955 19.9832 22.2092C21.1558 23.254 22.1428 23.5777 22.4508 23.7318C22.757 23.8857 22.9355 23.8595 23.1157 23.6548C23.296 23.45 23.8822 22.7587 24.087 22.4525C24.2917 22.1445 24.4965 22.197 24.7783 22.2985C25.0583 22.4017 26.5668 23.142 26.8748 23.296C27.181 23.45 27.3857 23.5252 27.4627 23.653C27.5397 23.7808 27.5397 24.395 27.2842 25.1108L27.279 25.1125Z"/>
</mask>
<path d="M21 0C9.40275 0 0 9.40275 0 21C0 32.5972 9.40275 42 21 42C32.5972 42 42 32.5972 42 21C42 9.40275 32.5972 0 21 0ZM21.2747 33.0103H21.2695C19.2199 33.0107 17.203 32.4968 15.4035 31.5158L8.89525 33.2238L10.6383 26.8625C9.56174 24.9964 8.99616 22.8796 8.9985 20.7253C9.002 13.9563 14.5075 8.45075 21.2747 8.45075C24.5577 8.45075 27.6412 9.73 29.9582 12.0505C31.1015 13.1888 32.0077 14.5425 32.6244 16.0333C33.2411 17.5241 33.556 19.1224 33.551 20.7358C33.5493 27.5047 28.0402 33.0103 21.2747 33.0103ZM21.2783 10.5227C18.5727 10.5255 15.9788 11.6012 14.0652 13.5137C12.1516 15.4263 11.0747 18.0198 11.0705 20.7253C11.0705 22.6538 11.6095 24.5315 12.6298 26.1555L12.873 26.5422L11.8423 30.3065L15.7027 29.2933L16.0755 29.5138C17.6481 30.4447 19.442 30.9361 21.2695 30.9365H21.273C23.9777 30.9328 26.5706 29.8567 28.4832 27.9442C30.3957 26.0316 31.4718 23.4387 31.4755 20.734C31.4796 19.3932 31.2179 18.0648 30.7054 16.8257C30.193 15.5867 29.44 14.4615 28.49 13.5153C27.5451 12.5644 26.4211 11.8103 25.1829 11.2966C23.9447 10.783 22.617 10.52 21.2765 10.5227H21.2783ZM27.279 25.1125C27.0235 25.83 25.7985 26.4827 25.2087 26.5702C24.5641 26.6803 23.9027 26.639 23.2767 26.4495C22.6829 26.2656 22.0993 26.05 21.5285 25.8037C18.452 24.4755 16.4412 21.3762 16.289 21.1715C16.135 20.9667 15.036 19.509 15.036 17.9987C15.036 16.4885 15.8288 15.7465 16.1105 15.4403C16.3923 15.134 16.7248 15.057 16.9277 15.057C17.1308 15.057 17.3372 15.0587 17.5157 15.0675C17.703 15.078 17.9567 14.9958 18.2052 15.5943C18.4608 16.2085 19.075 17.7188 19.152 17.8728C19.229 18.0268 19.2797 18.2053 19.1782 18.41C19.075 18.6147 19.0243 18.7425 18.872 18.921C18.718 19.0995 18.55 19.3218 18.4118 19.4583C18.2577 19.6105 18.0985 19.7768 18.277 20.0848C18.4555 20.3927 19.0715 21.3955 19.9832 22.2092C21.1558 23.254 22.1428 23.5777 22.4508 23.7318C22.757 23.8857 22.9355 23.8595 23.1157 23.6548C23.296 23.45 23.8822 22.7587 24.087 22.4525C24.2917 22.1445 24.4965 22.197 24.7783 22.2985C25.0583 22.4017 26.5668 23.142 26.8748 23.296C27.181 23.45 27.3857 23.5252 27.4627 23.653C27.5397 23.7808 27.5397 24.395 27.2842 25.1108L27.279 25.1125Z" fill="#4E8528"/>
<path d="M21.2695 33.0103V11.6769L21.2653 11.6769L21.2695 33.0103ZM15.4035 31.5158L25.6149 12.7851L18.1795 8.73149L9.98824 10.8812L15.4035 31.5158ZM8.89525 33.2238L-11.6797 27.5862L-21.4498 63.2431L14.3105 53.8583L8.89525 33.2238ZM10.6383 26.8625L31.2132 32.5001L33.5659 23.9138L29.1172 16.2023L10.6383 26.8625ZM8.9985 20.7253L30.3318 20.7484L30.3318 20.7363L8.9985 20.7253ZM29.9582 12.0505L14.8619 27.1241L14.8839 27.1461L14.906 27.1681L29.9582 12.0505ZM33.551 20.7358L12.2178 20.6694L12.2177 20.6998L12.2177 20.7302L33.551 20.7358ZM21.2783 10.5227L21.3001 31.8561L21.2783 -10.8106V10.5227ZM11.0705 20.7253L-10.2628 20.6924L-10.2628 20.7088V20.7253H11.0705ZM12.6298 26.1555L-5.43459 37.5041L-5.42867 37.5135L12.6298 26.1555ZM12.873 26.5422L33.4489 32.1765L35.9269 23.1267L30.9314 15.1842L12.873 26.5422ZM11.8423 30.3065L-8.73363 24.6723L-18.4963 60.3253L17.2581 50.9409L11.8423 30.3065ZM15.7027 29.2933L26.5643 10.9319L18.9 6.39817L10.2869 8.65882L15.7027 29.2933ZM16.0755 29.5138L26.9429 11.1559L26.9371 11.1524L16.0755 29.5138ZM21.2695 30.9365L21.2646 52.2698H21.2695V30.9365ZM21.273 30.9365V52.2698H21.2876L21.3022 52.2698L21.273 30.9365ZM31.4755 20.734L10.1423 20.6685L10.1422 20.6867L10.1422 20.7048L31.4755 20.734ZM28.49 13.5153L13.3574 28.5524L13.3961 28.5913L13.435 28.63L28.49 13.5153ZM21.2765 10.5227L21.232 -10.8105L21.2765 31.8561V10.5227ZM27.279 25.1125L20.5289 4.87521L10.6687 8.16404L7.18186 17.956L27.279 25.1125ZM25.2087 26.5702L22.0778 5.46791L21.8473 5.50211L21.6177 5.54134L25.2087 26.5702ZM23.2767 26.4495L16.9656 46.8279L17.0303 46.848L17.0952 46.8676L23.2767 26.4495ZM21.5285 25.8037L13.0725 45.3896L13.0773 45.3917L21.5285 25.8037ZM16.289 21.1715L33.4082 8.44184L33.3733 8.39492L33.3382 8.3482L16.289 21.1715ZM17.5157 15.0675L18.7101 -6.23237L18.6352 -6.23658L18.5602 -6.24025L17.5157 15.0675ZM18.2052 15.5943L-1.49727 23.7748L-1.49204 23.7874L18.2052 15.5943ZM19.1782 18.41L38.2267 28.0156L38.2595 27.9505L38.2919 27.8852L19.1782 18.41ZM18.872 18.921L35.0247 32.8566L35.064 32.811L35.1031 32.7652L18.872 18.921ZM18.4118 19.4583L3.42319 4.27753L3.41325 4.28735L18.4118 19.4583ZM19.9832 22.2092L5.77795 38.1253L5.78446 38.1311L5.79098 38.1369L19.9832 22.2092ZM22.4508 23.7318L32.0348 4.67247L32.0131 4.66153L31.9913 4.65064L22.4508 23.7318ZM24.087 22.4525L41.8218 34.3095L41.8374 34.2862L41.8529 34.2628L24.087 22.4525ZM24.7783 22.2985L32.1591 2.28265L32.084 2.25495L32.0087 2.22782L24.7783 22.2985ZM26.8748 23.296L36.4588 4.23672L36.4371 4.22578L36.4153 4.21489L26.8748 23.296ZM27.2842 25.1108L34.0343 45.348L43.8848 42.0624L47.3759 32.2828L27.2842 25.1108ZM21 0V-21.3333C-2.37932 -21.3333 -21.3333 -2.37932 -21.3333 21H0H21.3333C21.3333 20.9953 21.3335 21.0128 21.3268 21.0452C21.3204 21.0764 21.3105 21.1081 21.2983 21.1371C21.2749 21.1923 21.2504 21.2216 21.236 21.236C21.2216 21.2504 21.1923 21.2749 21.1371 21.2983C21.1081 21.3105 21.0764 21.3204 21.0452 21.3268C21.0128 21.3335 20.9953 21.3333 21 21.3333V0ZM0 21H-21.3333C-21.3333 44.3793 -2.37932 63.3333 21 63.3333V42V20.6667C20.9953 20.6667 21.0128 20.6665 21.0452 20.6732C21.0764 20.6796 21.1081 20.6895 21.1371 20.7017C21.1923 20.7251 21.2216 20.7496 21.236 20.764C21.2504 20.7784 21.2749 20.8077 21.2983 20.8629C21.3105 20.8919 21.3204 20.9236 21.3268 20.9548C21.3335 20.9872 21.3333 21.0047 21.3333 21H0ZM21 42V63.3333C44.3793 63.3333 63.3333 44.3793 63.3333 21H42H20.6667C20.6667 21.0047 20.6665 20.9872 20.6732 20.9548C20.6796 20.9236 20.6895 20.8919 20.7017 20.8629C20.7251 20.8077 20.7496 20.7784 20.764 20.764C20.7784 20.7496 20.8077 20.7251 20.8629 20.7017C20.8919 20.6895 20.9236 20.6796 20.9548 20.6732C20.9872 20.6665 21.0047 20.6667 21 20.6667V42ZM42 21H63.3333C63.3333 -2.37932 44.3793 -21.3333 21 -21.3333V0V21.3333C21.0047 21.3333 20.9872 21.3335 20.9548 21.3268C20.9236 21.3204 20.8919 21.3105 20.8629 21.2983C20.8077 21.2749 20.7784 21.2504 20.764 21.236C20.7496 21.2216 20.7251 21.1923 20.7017 21.1371C20.6895 21.1081 20.6796 21.0764 20.6732 21.0452C20.6665 21.0128 20.6667 20.9953 20.6667 21H42ZM21.2747 33.0103V11.6769H21.2695V33.0103V54.3436H21.2747V33.0103ZM21.2695 33.0103L21.2653 11.6769C22.7851 11.6766 24.2806 12.0576 25.6149 12.7851L15.4035 31.5158L5.19207 50.2464C10.1255 52.936 15.6548 54.3447 21.2737 54.3436L21.2695 33.0103ZM15.4035 31.5158L9.98824 10.8812L3.47999 12.5892L8.89525 33.2238L14.3105 53.8583L20.8188 52.1503L15.4035 31.5158ZM8.89525 33.2238L29.4702 38.8613L31.2132 32.5001L10.6383 26.8625L-9.9367 21.2249L-11.6797 27.5862L8.89525 33.2238ZM10.6383 26.8625L29.1172 16.2023C29.9146 17.5846 30.3336 19.1526 30.3318 20.7484L8.9985 20.7253L-12.3348 20.7021C-12.3412 26.6065 -10.7911 32.4083 -7.84068 37.5227L10.6383 26.8625ZM8.9985 20.7253L30.3318 20.7363C30.3292 25.7366 26.2937 29.7841 21.2747 29.7841V8.45075V-12.8826C2.72131 -12.8826 -12.3252 2.17588 -12.3348 20.7142L8.9985 20.7253ZM21.2747 8.45075V29.7841C18.8948 29.7841 16.547 28.8117 14.8619 27.1241L29.9582 12.0505L45.0546 -3.02306C38.7355 -9.3517 30.2207 -12.8826 21.2747 -12.8826V8.45075ZM29.9582 12.0505L14.906 27.1681C14.0506 26.3164 13.3725 25.3034 12.9111 24.188L32.6244 16.0333L52.3377 7.87873C50.6429 3.78163 48.1524 0.0612822 45.0105 -3.06708L29.9582 12.0505ZM32.6244 16.0333L12.9111 24.188C12.4497 23.0725 12.214 21.8766 12.2178 20.6694L33.551 20.7358L54.8842 20.8021C54.898 16.3683 54.0325 11.9758 52.3377 7.87873L32.6244 16.0333ZM33.551 20.7358L12.2177 20.7302C12.219 15.7186 16.2611 11.6769 21.2747 11.6769V33.0103V54.3436C39.8194 54.3436 54.8795 39.2909 54.8843 20.7413L33.551 20.7358ZM21.2783 10.5227L21.2564 -10.8106C12.9024 -10.802 4.89281 -7.48071 -1.01586 -1.57508L14.0652 13.5137L29.1463 28.6026C27.0647 30.683 24.2431 31.8531 21.3001 31.8561L21.2783 10.5227ZM14.0652 13.5137L-1.01586 -1.57508C-6.92453 4.33054 -10.2499 12.3384 -10.2628 20.6924L11.0705 20.7253L32.4038 20.7581C32.3993 23.7011 31.2278 26.5221 29.1463 28.6026L14.0652 13.5137ZM11.0705 20.7253H-10.2628C-10.2628 26.6432 -8.60434 32.4586 -5.43459 37.5041L12.6298 26.1555L30.6941 14.8069C31.8233 16.6044 32.4038 18.6643 32.4038 20.7253H11.0705ZM12.6298 26.1555L-5.42867 37.5135L-5.18542 37.9003L12.873 26.5422L30.9314 15.1842L30.6882 14.7975L12.6298 26.1555ZM12.873 26.5422L-7.70288 20.908L-8.73363 24.6723L11.8423 30.3065L32.4181 35.9407L33.4489 32.1765L12.873 26.5422ZM11.8423 30.3065L17.2581 50.9409L21.1186 49.9277L15.7027 29.2933L10.2869 8.65882L6.42641 9.67207L11.8423 30.3065ZM15.7027 29.2933L4.84119 47.6546L5.21394 47.8751L16.0755 29.5138L26.9371 11.1524L26.5643 10.9319L15.7027 29.2933ZM16.0755 29.5138L5.20812 47.8716C10.0697 50.7495 15.6151 52.2685 21.2646 52.2698L21.2695 30.9365L21.2744 9.60317C23.2689 9.60362 25.2266 10.1399 26.9429 11.1559L16.0755 29.5138ZM21.2695 30.9365V52.2698H21.273V30.9365V9.60316H21.2695V30.9365ZM21.273 30.9365L21.3022 52.2698C29.6548 52.2584 37.662 48.9353 43.5681 43.0291L28.4832 27.9442L13.3982 12.8592C15.4793 10.7781 18.3007 9.60722 21.2438 9.60318L21.273 30.9365ZM28.4832 27.9442L43.5681 43.0291C49.4743 37.123 52.7974 29.1158 52.8088 20.7632L31.4755 20.734L10.1422 20.7048C10.1462 17.7617 11.3171 14.9403 13.3982 12.8592L28.4832 27.9442ZM31.4755 20.734L52.8087 20.7995C52.8215 16.639 52.0094 12.5172 50.4193 8.67256L30.7054 16.8257L10.9916 24.9789C10.4264 23.6124 10.1377 22.1473 10.1423 20.6685L31.4755 20.734ZM30.7054 16.8257L50.4193 8.67256C48.8293 4.8279 46.4928 1.33657 43.545 -1.59954L28.49 13.5153L13.435 28.63C12.3872 27.5864 11.5567 26.3455 10.9916 24.9789L30.7054 16.8257ZM28.49 13.5153L43.6226 -1.52187C40.6898 -4.47335 37.2008 -6.81399 33.3575 -8.40836L25.1829 11.2966L17.0083 31.0017C15.6414 30.4346 14.4005 29.6021 13.3574 28.5524L28.49 13.5153ZM25.1829 11.2966L33.3575 -8.40836C29.5142 -10.0027 25.3929 -10.8192 21.232 -10.8105L21.2765 10.5227L21.321 31.856C19.8411 31.8591 18.3753 31.5687 17.0083 31.0017L25.1829 11.2966ZM21.2765 10.5227V31.8561H21.2783V10.5227V-10.8106H21.2765V10.5227ZM27.279 25.1125L7.18186 17.956C8.50908 14.2288 10.5735 11.8438 11.6847 10.7085C12.9124 9.45415 14.0651 8.62427 14.8635 8.11297C15.6968 7.57923 16.5677 7.12226 17.4868 6.73638C18.2309 6.42398 19.8461 5.79903 22.0778 5.46791L25.2087 26.5702L28.3397 47.6726C32.6369 47.035 35.9672 45.2641 37.875 44.0423C39.2732 43.1468 44.7809 39.5569 47.3761 32.269L27.279 25.1125ZM25.2087 26.5702L21.6177 5.54134C24.2338 5.09458 26.9181 5.26233 29.4583 6.03137L23.2767 26.4495L17.0952 46.8676C20.8873 48.0157 24.8944 48.2661 28.7998 47.5992L25.2087 26.5702ZM23.2767 26.4495L29.5879 6.07108C29.721 6.1123 29.8518 6.1606 29.9797 6.21577L21.5285 25.8037L13.0773 45.3917C14.3468 45.9395 15.6448 46.4189 16.9656 46.8279L23.2767 26.4495ZM21.5285 25.8037L29.9845 6.21787C31.1781 6.73319 31.9965 7.29686 32.456 7.65099C32.9249 8.01239 33.2223 8.3121 33.3736 8.47346C33.5349 8.64539 33.6508 8.78983 33.7358 8.90193C33.7834 8.96468 33.8246 9.02179 33.8543 9.06381C33.8661 9.08052 33.8748 9.0931 33.8516 9.05967C33.8481 9.05465 33.8083 8.99735 33.7671 8.93868C33.7528 8.91838 33.6012 8.70139 33.4082 8.44184L16.289 21.1715L-0.830198 33.9012C-1.41038 33.1209 0.250787 35.5265 2.25067 37.6592C4.18964 39.7268 7.79787 43.1124 13.0725 45.3896L21.5285 25.8037ZM16.289 21.1715L33.3382 8.3482C33.3281 8.33485 33.3579 8.37429 33.3937 8.42273C33.4309 8.47286 33.4744 8.53237 33.5225 8.59928C33.618 8.73242 33.7244 8.88534 33.8371 9.05627C34.0515 9.38136 34.3315 9.83557 34.6251 10.4136C34.9096 10.9737 35.3055 11.8426 35.6475 12.9853C35.9845 14.1112 36.3693 15.8348 36.3693 17.9987H15.036H-6.29733C-6.29733 23.5537 -4.40437 27.7892 -3.4156 29.7358C-2.27514 31.9811 -1.08118 33.568 -0.760166 33.9948L16.289 21.1715ZM15.036 17.9987H36.3693C36.3693 21.2286 35.4593 24.2559 34.0354 26.7727C32.7962 28.963 31.089 30.6682 31.8104 29.8841L16.1105 15.4403L0.410639 0.996377C0.850281 0.518504 -1.39423 2.7479 -3.10019 5.76331C-4.99089 9.10526 -6.29733 13.2586 -6.29733 17.9987H15.036ZM16.1105 15.4403L31.8104 29.8841C27.3895 34.6894 21.6361 36.3903 16.9277 36.3903V15.057V-6.27633C11.8135 -6.27633 5.39499 -4.4214 0.410639 0.996377L16.1105 15.4403ZM16.9277 15.057V36.3903C16.976 36.3903 16.9571 36.3906 16.9021 36.3898C16.8534 36.389 16.6964 36.3863 16.4713 36.3752L17.5157 15.0675L18.5602 -6.24025C17.8237 -6.27635 17.173 -6.27633 16.9277 -6.27633V15.057ZM17.5157 15.0675L16.3214 36.3674C17.1032 36.4112 17.8151 36.4014 17.6522 36.4018C17.6518 36.4018 17.642 36.4019 17.6287 36.4019C17.6148 36.4019 17.5933 36.4019 17.5667 36.4019C17.5144 36.4018 17.4324 36.4014 17.3313 36.4C17.1313 36.3972 16.8199 36.39 16.4382 36.368C14.8181 36.2744 11.9551 35.9217 8.74348 34.4083C1.99768 31.2294 -0.681592 25.7393 -1.49727 23.7748L18.2052 15.5943L37.9078 7.41367C36.8436 4.85065 33.9132 -0.897486 26.9316 -4.18754C23.6021 -5.75656 20.625 -6.12806 18.8969 -6.22781C18.4881 -6.25141 18.1502 -6.25941 17.9239 -6.26255C17.7117 -6.2655 17.5371 -6.26467 17.5257 -6.26464C17.3121 -6.26401 17.9752 -6.27359 18.7101 -6.23237L17.5157 15.0675ZM18.2052 15.5943L-1.49204 23.7874C-1.38096 24.0545 -1.21007 24.4725 -0.979203 25.0329C-0.87919 25.2756 -0.767145 25.5468 -0.669005 25.7811C-0.621705 25.894 -0.558449 26.0442 -0.491932 26.1985C-0.459454 26.2739 -0.40761 26.3935 -0.345325 26.5328C-0.316715 26.5969 -0.152834 26.9659 0.0708864 27.4133L19.152 17.8728L38.2331 8.33219C38.3605 8.58706 38.4546 8.78843 38.4969 8.87953C38.5468 8.98729 38.5855 9.07318 38.6083 9.12422C38.653 9.22425 38.6835 9.29498 38.6913 9.31311C38.7085 9.353 38.7091 9.35516 38.684 9.29523C38.6374 9.18382 38.5654 9.01015 38.4703 8.7793C38.3767 8.55197 38.2808 8.31845 38.1808 8.07533C38.0882 7.84993 37.9857 7.6011 37.9025 7.40108L18.2052 15.5943ZM19.152 17.8728L0.0708864 27.4133C-0.464099 26.3433 -1.60845 23.8477 -1.97889 20.4041C-2.38834 16.598 -1.7517 12.5987 0.0645743 8.93485L19.1782 18.41L38.2919 27.8852C42.6924 19.0084 39.6473 11.1606 38.2331 8.33219L19.152 17.8728ZM19.1782 18.41L0.129808 8.80438C0.0871624 8.88894 -0.10252 9.27123 0.00558029 9.0538C0.0319966 9.00066 0.191161 8.67919 0.421316 8.2674C0.672423 7.81811 0.998605 7.2761 1.40844 6.68192C1.81694 6.08967 2.23313 5.55485 2.64088 5.07681L18.872 18.921L35.1031 32.7652C36.1617 31.5241 36.9972 30.2794 37.6657 29.0833C37.9405 28.5917 38.1412 28.1887 38.2109 28.0484C38.2308 28.0084 38.2475 27.9746 38.2567 27.9559C38.2784 27.912 38.2601 27.9491 38.2722 27.9245C38.2746 27.9197 38.255 27.9594 38.2267 28.0156L19.1782 18.41ZM18.872 18.921L2.71932 4.98536C2.51777 5.21898 2.35443 5.41703 2.28321 5.50356C2.2471 5.54743 2.20771 5.59551 2.19897 5.60617C2.18186 5.62704 2.18645 5.62139 2.1977 5.60779C2.21222 5.59023 2.32569 5.45275 2.48949 5.26619C2.5764 5.16722 2.69624 5.03295 2.8433 4.87481C2.98887 4.7183 3.18445 4.51325 3.42319 4.27753L18.4118 19.4583L33.4003 34.639C33.9231 34.1228 34.3237 33.6765 34.5512 33.4174C34.7902 33.1452 34.9812 32.9155 35.0742 32.803C35.1248 32.7419 35.1689 32.6881 35.1913 32.6607C35.208 32.6404 35.2091 32.6391 35.2189 32.6271C35.2251 32.6196 35.2266 32.6177 35.2259 32.6186C35.2254 32.6192 35.2056 32.6433 35.175 32.6799C35.1442 32.7166 35.0922 32.7784 35.0247 32.8566L18.872 18.921ZM18.4118 19.4583L3.41325 4.28735C3.38082 4.31942 3.15759 4.53908 2.89238 4.81807C2.61612 5.10869 2.19129 5.57039 1.71005 6.16572C0.774487 7.32307 -0.701949 9.38166 -1.78243 12.2951C-4.46056 19.5165 -2.78632 26.2857 -0.180639 30.7818L18.277 20.0848L36.7346 9.38771C37.7842 11.1987 38.9397 13.8388 39.3652 17.1962C39.8111 20.7147 39.3385 24.12 38.2218 27.1311C37.1781 29.9454 35.7592 31.9147 34.8912 32.9884C34.4438 33.5419 34.0552 33.9632 33.8165 34.2144C33.6932 34.3441 33.5915 34.4476 33.5257 34.5139C33.4623 34.5778 33.4143 34.6252 33.4103 34.6291L18.4118 19.4583ZM18.277 20.0848L-0.180639 30.7818C0.389836 31.7661 2.35165 35.0673 5.77795 38.1253L19.9832 22.2092L34.1885 6.2932C35.1255 7.12947 35.7021 7.86104 35.9826 8.23877C36.2942 8.65842 36.5351 9.04342 36.7346 9.38771L18.277 20.0848ZM19.9832 22.2092L5.79098 38.1369C7.81471 39.9401 9.79114 41.2137 11.4857 42.1194C12.3151 42.5627 13.0114 42.8823 13.4555 43.0792C13.6014 43.1439 13.8665 43.2589 13.7742 43.2187C13.7715 43.2175 13.6876 43.181 13.571 43.1281C13.4614 43.0784 13.2191 42.9673 12.9102 42.8129L22.4508 23.7318L31.9913 4.65064C31.6439 4.47694 31.3577 4.34528 31.1993 4.2734C31.0339 4.19834 30.8961 4.1381 30.8345 4.11125C30.7996 4.09603 30.7683 4.08242 30.7509 4.07488C30.7284 4.0651 30.7228 4.06269 30.7141 4.0589C30.7016 4.05349 30.7173 4.06024 30.7448 4.07247C30.8805 4.13261 31.1991 4.27719 31.5967 4.48971C32.4276 4.93378 33.3243 5.5231 34.1755 6.28158L19.9832 22.2092ZM22.4508 23.7318L12.8667 42.791C14.4437 43.5841 19.1353 45.7727 25.4225 45.0031C32.5466 44.131 37.0335 40.1307 39.1283 37.7512L23.1157 23.6548L7.10324 9.55827C9.01772 7.38357 13.3253 3.49872 20.2385 2.65249C26.3148 1.90872 30.7641 4.03345 32.0348 4.67247L22.4508 23.7318ZM23.1157 23.6548L39.1283 37.7512C39.1623 37.7126 40.7022 35.984 41.8218 34.3095L24.087 22.4525L6.3522 10.5955C6.58009 10.2547 6.76316 10.0046 6.84624 9.89236C6.94214 9.76279 7.01375 9.67022 7.04809 9.62616C7.11368 9.54201 7.14115 9.5095 7.11643 9.53954C7.09898 9.56076 7.07387 9.5908 7.05046 9.61837C7.01614 9.65881 7.03482 9.63599 7.10324 9.55827L23.1157 23.6548ZM24.087 22.4525L41.8529 34.2628C40.8871 35.7156 39.2006 37.8469 36.505 39.7406C33.6005 41.781 30.2555 43.0288 26.8051 43.4197C23.6295 43.7794 21.1005 43.329 19.7604 43.0182C19.0604 42.8558 18.5075 42.6884 18.1743 42.5818C17.8454 42.4765 17.6003 42.3881 17.5478 42.3692L24.7783 22.2985L32.0087 2.22782C31.8808 2.18177 30.7904 1.77715 29.3999 1.45467C27.9358 1.11511 25.29 0.651755 22.0024 1.02418C13.7791 1.95574 8.72255 7.02973 6.32108 10.6422L24.087 22.4525ZM24.7783 22.2985L17.3974 42.3144C17.2829 42.2721 17.1827 42.234 17.0998 42.202C17.0163 42.1697 16.9425 42.1405 16.88 42.1155C16.8172 42.0904 16.7612 42.0676 16.7132 42.0478C16.6649 42.028 16.6217 42.01 16.5842 41.9942C16.5102 41.9632 16.4491 41.9369 16.4038 41.9173C16.3579 41.8974 16.3201 41.8808 16.2923 41.8684C16.2641 41.8559 16.2416 41.8458 16.2257 41.8387C16.2097 41.8315 16.1978 41.826 16.1906 41.8228C16.177 41.8166 16.1743 41.8153 16.1842 41.8199C16.1936 41.8242 16.21 41.8319 16.234 41.8432C16.2578 41.8544 16.2863 41.8679 16.3197 41.8838C16.3871 41.9159 16.4656 41.9535 16.5526 41.9954C16.639 42.037 16.7286 42.0805 16.8176 42.1238C16.9064 42.167 16.9918 42.2087 17.0693 42.2466C17.147 42.2847 17.2137 42.3176 17.2649 42.3428C17.2904 42.3554 17.3101 42.3651 17.3238 42.372C17.3389 42.3794 17.3414 42.3807 17.3342 42.3771L26.8748 23.296L36.4153 4.21489C36.1506 4.08251 35.6018 3.81283 35.0794 3.56104C34.8157 3.43393 34.4913 3.27879 34.1771 3.13265C34.0235 3.06122 33.8122 2.96392 33.5799 2.86097C33.48 2.81669 32.8868 2.551 32.1591 2.28265L24.7783 22.2985ZM26.8748 23.296L17.2907 42.3553C17.5555 42.4884 17.834 42.622 17.7935 42.6024C17.7934 42.6024 17.7925 42.6019 17.7908 42.6011C17.7891 42.6003 17.7865 42.599 17.7832 42.5974C17.7766 42.5942 17.766 42.589 17.7523 42.5823C17.7259 42.5694 17.6805 42.5471 17.6226 42.5181C17.5147 42.4641 17.3059 42.3582 17.0421 42.2144C16.5977 41.9721 15.4763 41.3444 14.1786 40.3219C12.831 39.2601 10.8653 37.4424 9.19169 34.6657L27.4627 23.653L45.7338 12.6403C44.0217 9.79967 42.0016 7.92469 40.5843 6.80801C39.217 5.73073 38.0108 5.05064 37.4673 4.75432C36.9071 4.44884 36.4186 4.21552 36.3765 4.19517C36.2091 4.11415 36.3472 4.18056 36.4588 4.23672L26.8748 23.296ZM27.4627 23.653L9.19169 34.6657C7.50335 31.8646 6.89025 29.3605 6.67842 28.4226C6.40072 27.193 6.28809 26.1726 6.23589 25.5102C6.13024 24.1697 6.17939 23.0755 6.24358 22.3303C6.37588 20.7946 6.69589 19.3303 7.19264 17.9387L27.2842 25.1108L47.3759 32.2828C48.1281 30.1755 48.5759 28.0462 48.7528 25.9924C48.8393 24.9883 48.89 23.6718 48.7707 22.1578C48.7443 21.8236 48.546 17.3059 45.7338 12.6403L27.4627 23.653ZM27.2842 25.1108L20.5342 4.87346L20.5289 4.87521L27.279 25.1125L34.0291 45.3498L34.0343 45.348L27.2842 25.1108Z" fill="#4E8528" mask="url(#path-1-inside-1_511_2613)"/>
</svg>
